<svg id="Layer_2" data-name="Layer 2" xmlns="http://www.w3.org/2000/svg" viewBox="0 0 168.25 64.2"><defs><style>.cls-1{fill:#e5dd23;}.cls-2{fill:#f78c1c;}.cls-3{fill:#ffc60a;}.cls-4{fill:#e863a3;}.cls-5{fill:#e8165b;}.cls-6{fill:#c6288e;}.cls-7{fill:#602d8e;}.cls-8{fill:#02b7ef;}.cls-9{fill:#008cd1;}.cls-10{fill:#aad138;}.cls-11{fill:#0aad99;}.cls-12{fill:#058760;}.cls-13{fill:#9a9c9f;}</style></defs><rect class="cls-1" x="146.71" y="18.01" width="21.54" height="5.93"/><rect class="cls-1" x="146.71" y="26.3" width="21.54" height="5.93"/><path class="cls-2" d="M29.43,31.15V42.42A18.35,18.35,0,0,0,36.55,35l-7.07-4A.56.56,0,0,1,29.43,31.15Z" transform="translate(-1.85 -4.85)"/><path class="cls-2" d="M29.43,10.5V21.77l.09.16,7.24-3.63A18.46,18.46,0,0,0,29.43,10.5Z" transform="translate(-1.85 -4.85)"/><path class="cls-3" d="M29.43,31.15a10.31,10.31,0,1,1,0-9.38V10.5a18.41,18.41,0,1,0-9.17,34.37,18.27,18.27,0,0,0,9.17-2.45Z" transform="translate(-1.85 -4.85)"/><path class="cls-4" d="M55.57,32.16a8.58,8.58,0,0,1-.11-1.35,8.45,8.45,0,0,1,.11-1.34V27a9.64,9.64,0,0,0-2.06-6.16,14.45,14.45,0,0,0,2.06,21.8Z" transform="translate(-1.85 -4.85)"/><path class="cls-5" d="M49.48,30.81a14.42,14.42,0,0,1,4-10C49.63,15.91,41.25,15,36.76,17.1V4.85H29.43V10.5a18.46,18.46,0,0,1,7.33,7.8l-7.24,3.63-.09-.16v9.38a.56.56,0,0,0,.05-.08l7.07,4a18.35,18.35,0,0,1-7.12,7.39v1.85h7.33V25.62C38.9,22.74,47,22.16,48,26.91V44.27h7.59V42.6A14.45,14.45,0,0,1,49.48,30.81Z" transform="translate(-1.85 -4.85)"/><path class="cls-6" d="M51.11,37.48c-.11-.2-.21-.41-.31-.62C50.9,37.07,51,37.28,51.11,37.48Z" transform="translate(-1.85 -4.85)"/><path class="cls-6" d="M50.73,36.69c-.09-.19-.17-.39-.25-.58C50.56,36.3,50.64,36.5,50.73,36.69Z" transform="translate(-1.85 -4.85)"/><path class="cls-6" d="M52.51,39.67a14.89,14.89,0,0,1-1.35-2.09A14.89,14.89,0,0,0,52.51,39.67Z" transform="translate(-1.85 -4.85)"/><path class="cls-6" d="M50.41,35.93l-.24-.68Z" transform="translate(-1.85 -4.85)"/><path class="cls-6" d="M53.05,40.33c-.17-.2-.34-.4-.5-.61C52.71,39.93,52.88,40.13,53.05,40.33Z" transform="translate(-1.85 -4.85)"/><path class="cls-6" d="M53.07,40.35a14.84,14.84,0,0,0,2.5,2.25A14.84,14.84,0,0,1,53.07,40.35Z" transform="translate(-1.85 -4.85)"/><path class="cls-6" d="M49.5,31.65c0-.28,0-.56,0-.84C49.48,31.09,49.49,31.37,49.5,31.65Z" transform="translate(-1.85 -4.85)"/><path class="cls-6" d="M49.58,32.48c0-.19,0-.38-.06-.57C49.54,32.1,49.55,32.29,49.58,32.48Z" transform="translate(-1.85 -4.85)"/><path class="cls-6" d="M50.14,35.16c-.08-.26-.15-.52-.22-.79C50,34.64,50.06,34.9,50.14,35.16Z" transform="translate(-1.85 -4.85)"/><path class="cls-6" d="M49.88,34.22c-.05-.21-.09-.43-.14-.64C49.79,33.79,49.83,34,49.88,34.22Z" transform="translate(-1.85 -4.85)"/><path class="cls-6" d="M49.7,33.32l-.09-.55Z" transform="translate(-1.85 -4.85)"/><path class="cls-6" d="M50.05,26.8c0,.15-.09.31-.13.46C50,27.11,50,27,50.05,26.8Z" transform="translate(-1.85 -4.85)"/><path class="cls-6" d="M51.45,23.52c-.1.18-.21.36-.3.55C51.24,23.88,51.35,23.7,51.45,23.52Z" transform="translate(-1.85 -4.85)"/><path class="cls-6" d="M51.11,24.13l-.27.55Z" transform="translate(-1.85 -4.85)"/><path class="cls-6" d="M51.82,22.93c-.12.18-.23.36-.34.55C51.59,23.29,51.7,23.11,51.82,22.93Z" transform="translate(-1.85 -4.85)"/><path class="cls-6" d="M50.8,24.77c-.08.17-.16.35-.23.53C50.64,25.12,50.72,24.94,50.8,24.77Z" transform="translate(-1.85 -4.85)"/><path class="cls-6" d="M52.21,22.36c-.13.18-.26.36-.38.55C52,22.72,52.08,22.54,52.21,22.36Z" transform="translate(-1.85 -4.85)"/><path class="cls-6" d="M52.62,21.82c-.14.17-.27.35-.41.53C52.35,22.17,52.48,22,52.62,21.82Z" transform="translate(-1.85 -4.85)"/><path class="cls-6" d="M49.71,28.24c0,.13-.05.27-.07.41C49.66,28.51,49.69,28.37,49.71,28.24Z" transform="translate(-1.85 -4.85)"/><path class="cls-6" d="M49.59,29c0,.12,0,.24,0,.36C49.56,29.24,49.58,29.12,49.59,29Z" transform="translate(-1.85 -4.85)"/><path class="cls-6" d="M50.52,25.42c-.07.17-.14.34-.2.52C50.38,25.77,50.45,25.59,50.52,25.42Z" transform="translate(-1.85 -4.85)"/><path class="cls-6" d="M49.52,29.8a2.46,2.46,0,0,0,0,.28A2.46,2.46,0,0,1,49.52,29.8Z" transform="translate(-1.85 -4.85)"/><path class="cls-6" d="M49.86,27.51c0,.14-.07.29-.1.44C49.79,27.8,49.83,27.65,49.86,27.51Z" transform="translate(-1.85 -4.85)"/><path class="cls-6" d="M50.27,26.1c-.06.16-.11.33-.17.49C50.16,26.43,50.21,26.26,50.27,26.1Z" transform="translate(-1.85 -4.85)"/><path class="cls-6" d="M55.57,29.47A8.47,8.47,0,0,1,72.4,30.6V19.1a14.42,14.42,0,0,0-18.89,1.7A9.64,9.64,0,0,1,55.57,27Z" transform="translate(-1.85 -4.85)"/><path class="cls-6" d="M72.4,31a8.47,8.47,0,0,1-16.83,1.14V42.6a14.44,14.44,0,0,0,16.83-.07Z" transform="translate(-1.85 -4.85)"/><path class="cls-6" d="M53.51,20.8l-.24.26.24-.26Z" transform="translate(-1.85 -4.85)"/><path class="cls-6" d="M53.1,21.25c-.17.19-.33.37-.48.57C52.77,21.62,52.93,21.44,53.1,21.25Z" transform="translate(-1.85 -4.85)"/><path class="cls-6" d="M53.27,21.06l-.17.19Z" transform="translate(-1.85 -4.85)"/><rect class="cls-7" x="70.55" y="13.81" width="7.1" height="25.61"/><path class="cls-8" d="M90.7,30.81h7.08l0-.41V27a9.84,9.84,0,0,0-2.45-6.65A14.2,14.2,0,0,0,90.7,30.81Z" transform="translate(-1.85 -4.85)"/><path class="cls-9" d="M90.7,30.81a14.2,14.2,0,0,1,4.66-10.5c-4.23-4.83-13.07-5.78-19.47-1.65h3.6V25.2c2.22-2,10.17-3,11.12,1.71V44.27h7.2V30.81Z" transform="translate(-1.85 -4.85)"/><path class="cls-10" d="M138.83,35.18a8.44,8.44,0,0,1-11,3.23l14.56-14v0L143.75,23a14.45,14.45,0,0,0-25,1.13,14,14,0,0,1,0,13.32,14.46,14.46,0,0,0,25.32.63ZM123.1,30.81a8.47,8.47,0,0,1,8.47-8.47,8.38,8.38,0,0,1,3.4.71L123.69,33.93A8.53,8.53,0,0,1,123.1,30.81Z" transform="translate(-1.85 -4.85)"/><path class="cls-11" d="M114,42.72a14.54,14.54,0,0,0,4.76-5.25,14.42,14.42,0,0,1,0-13.32,14.29,14.29,0,0,0-2.87-3.74,14.3,14.3,0,0,0,5.06-10.08h-7.77a8,8,0,0,1-4.76,6.29,15.63,15.63,0,0,0-2.84-.27,15,15,0,0,0-10.2,4A9.84,9.84,0,0,1,97.81,27V30.4l0,.41a8,8,0,1,1,8.33,8.06h-5v7.26h4.68a8.54,8.54,0,0,1,.72,17.05v5.85a14.63,14.63,0,0,0,13.91-14.42A14.34,14.34,0,0,0,114,42.72Z" transform="translate(-1.85 -4.85)"/><path class="cls-12" d="M118.74,37.47a14,14,0,0,0,0-13.32,14.42,14.42,0,0,0,0,13.32Z" transform="translate(-1.85 -4.85)"/><path class="cls-13" d="M29.55,53.6h.84L33,57.5h0V53.6h.64v4.74h-.82l-2.64-3.9h0v3.9h-.64Z" transform="translate(-1.85 -4.85)"/><path class="cls-13" d="M35,53.6H38.1v.6H35.69v1.42h2.25v.6H35.69v1.52h2.54v.6H35Z" transform="translate(-1.85 -4.85)"/><path class="cls-13" d="M40.29,54.2H38.77v-.6h3.69v.6H40.94v4.14h-.65Z" transform="translate(-1.85 -4.85)"/><path class="cls-13" d="M42.71,53.6h.67l1,3.79h0l1.12-3.79h.73l1.12,3.79h0l1-3.79h.67l-1.38,4.74h-.68l-1.15-3.87h0l-1.14,3.87H44.1Z" transform="translate(-1.85 -4.85)"/><path class="cls-13" d="M52.1,58.46a2.54,2.54,0,0,1-1-.19,2.48,2.48,0,0,1-.78-.52,2.82,2.82,0,0,1-.51-.79,2.72,2.72,0,0,1-.18-1,2.63,2.63,0,0,1,.18-1,2.56,2.56,0,0,1,.51-.79,2.35,2.35,0,0,1,.78-.53,2.73,2.73,0,0,1,2,0,2.35,2.35,0,0,1,.78.53,2.56,2.56,0,0,1,.51.79,2.63,2.63,0,0,1,.18,1,2.72,2.72,0,0,1-.18,1,2.82,2.82,0,0,1-.51.79,2.48,2.48,0,0,1-.78.52A2.54,2.54,0,0,1,52.1,58.46Zm0-.6a1.69,1.69,0,0,0,1.3-.56,1.66,1.66,0,0,0,.36-.6,2.11,2.11,0,0,0,0-1.46,1.66,1.66,0,0,0-.36-.6,1.76,1.76,0,0,0-2.6,0,1.66,1.66,0,0,0-.36.6,2.11,2.11,0,0,0,0,1.46,1.66,1.66,0,0,0,.36.6,1.69,1.69,0,0,0,1.3.56Z" transform="translate(-1.85 -4.85)"/><path class="cls-13" d="M55.66,53.6h1.67a2,2,0,0,1,.75.12,1.39,1.39,0,0,1,.47.32,1.06,1.06,0,0,1,.23.43,1.51,1.51,0,0,1,.07.46,1.26,1.26,0,0,1-.08.43,1.18,1.18,0,0,1-.23.39,1.17,1.17,0,0,1-.37.28,1.28,1.28,0,0,1-.49.15L59,58.34h-.8L57,56.25h-.71v2.09h-.65Zm.65,2.09h.84a2.31,2.31,0,0,0,.37,0,1.17,1.17,0,0,0,.33-.11.63.63,0,0,0,.23-.23.75.75,0,0,0,.09-.39.79.79,0,0,0-.09-.4.72.72,0,0,0-.23-.23,1.17,1.17,0,0,0-.33-.11,2.31,2.31,0,0,0-.37,0h-.84Z" transform="translate(-1.85 -4.85)"/><path class="cls-13" d="M59.92,53.6h.64v2h.06l2.09-2h.9l-2.29,2.19,2.45,2.55h-.94L60.62,56h-.06v2.37h-.64Z" transform="translate(-1.85 -4.85)"/><path class="cls-13" d="M64.43,53.6h3.06v.6H65.07v1.42h2.25v.6H65.07v1.52h2.54v.6H64.43Z" transform="translate(-1.85 -4.85)"/><path class="cls-13" d="M68.58,53.6h1.65a3.25,3.25,0,0,1,.88.11,2.24,2.24,0,0,1,.66.31,1.76,1.76,0,0,1,.46.44,1.86,1.86,0,0,1,.29.51,2,2,0,0,1,.16.52,2.8,2.8,0,0,1,0,.48,2.42,2.42,0,0,1-.17.88,2.23,2.23,0,0,1-.5.76,2.42,2.42,0,0,1-.81.53,3,3,0,0,1-1.12.2H68.58Zm.64,4.14H70a2.83,2.83,0,0,0,.78-.11,2.28,2.28,0,0,0,.64-.33,1.61,1.61,0,0,0,.43-.56A1.68,1.68,0,0,0,72,56a2.21,2.21,0,0,0-.07-.53,1.56,1.56,0,0,0-.28-.58,1.69,1.69,0,0,0-.57-.47,2.07,2.07,0,0,0-.93-.19h-1Z" transform="translate(-1.85 -4.85)"/><path class="cls-13" d="M75.85,53.6h.64v4.14h2.17v.6H75.85Z" transform="translate(-1.85 -4.85)"/><path class="cls-13" d="M79.49,53.6h.64v4.74h-.64Z" transform="translate(-1.85 -4.85)"/><path class="cls-13" d="M80.87,53.6h.74L83,57.46h0l1.44-3.86h.71L83.3,58.34h-.6Z" transform="translate(-1.85 -4.85)"/><path class="cls-13" d="M85.9,53.6h.65v4.74H85.9Z" transform="translate(-1.85 -4.85)"/><path class="cls-13" d="M87.93,53.6h.85l2.61,3.9h0V53.6H92v4.74h-.81l-2.64-3.9h0v3.9h-.65Z" transform="translate(-1.85 -4.85)"/><path class="cls-13" d="M97.47,55.69V58a2.1,2.1,0,0,1-.4.18,3.09,3.09,0,0,1-.46.14,2.41,2.41,0,0,1-.48.08l-.46,0a2.76,2.76,0,0,1-1.07-.2,2.26,2.26,0,0,1-.8-.54,2.33,2.33,0,0,1-.49-.8,2.5,2.5,0,0,1-.17-1,2.63,2.63,0,0,1,.18-1,2.24,2.24,0,0,1,.51-.79,2.35,2.35,0,0,1,.78-.53,2.51,2.51,0,0,1,1-.19,3,3,0,0,1,1.07.16,1.78,1.78,0,0,1,.69.46l-.45.48a1.89,1.89,0,0,0-.62-.39,2.26,2.26,0,0,0-.69-.11,1.75,1.75,0,0,0-.74.15,1.76,1.76,0,0,0-.92,1,2,2,0,0,0-.13.73,2,2,0,0,0,.14.75,1.73,1.73,0,0,0,.39.6,1.82,1.82,0,0,0,.58.4,1.94,1.94,0,0,0,.73.14,3.42,3.42,0,0,0,.65-.06,2.26,2.26,0,0,0,.52-.19V56.29H95.77v-.6Z" transform="translate(-1.85 -4.85)"/></svg>